<svg xmlns="http://www.w3.org/2000/svg" viewBox="0 0 64 64" id="carrot"><path fill="#91db69" d="M54.207 8.155c-1.282.034-2.518.504-3.53 1.265a.175.175 0 0 1-.264-.222c.574-1.129.821-2.428.632-3.696a3.633 3.633 0 0 0-4.405-3.227c-1.275.268-2.268 1.279-2.686 2.512L42.56 8.894c2.61 2.834.981 7.1-.471 10.126a.24.24 0 0 0 .361.303c2.727-1.955 6.647-4.301 9.891-2.223l3.802-2.086c1.142-.627 1.966-1.78 2.008-3.082a3.634 3.634 0 0 0-3.944-3.777z"></path><path fill="#91db69" d="M54.579 19.92c-.665-2.287-3.354-4-5.703-3.612-2.07.343-4.564 1.535-6.426 3.015a.24.24 0 0 1-.361-.303c1.134-2.091 1.875-4.754 1.853-6.852-.025-2.382-2.179-4.731-4.547-4.99-3.427-.374-6.079 2.944-4.959 6.205l1.844 4.098a2.442 2.442 0 0 1-.356 2.572l-.439.523c1.243.435 2.504 1.148 3.759 2.201 1.254 1.052 2.176 2.171 2.82 3.319l.439-.523a2.44 2.44 0 0 1 2.471-.797l4.356 1.105c3.405.537 6.212-2.651 5.249-5.961z"></path><path fill="#fbb954" d="M26.44 22.478c3.508-3 8.206-3.557 12.803.3 4.596 3.857 4.864 8.58 2.518 12.556-5.449 9.237-14.372 17.737-23.51 23.351 0 0-8.083 4.966-11.147 2.395-3.064-2.572.423-11.395.423-11.395 3.941-9.973 10.763-20.237 18.913-27.207z"></path><path fill="#fa993e" d="M12.846 46.102a.995.995 0 0 0 .689.275 1.001 1.001 0 0 0 .69-1.725 80.558 80.558 0 0 1-2.943-2.96 75.609 75.609 0 0 0-.981 1.864 83.697 83.697 0 0 0 2.545 2.546z"></path><path fill="#fa983e" d="M32.815 31.437a1 1 0 0 0 .644-1.766 82.365 82.365 0 0 1-3.807-3.402 81.611 81.611 0 0 1-3.312-3.345l-.179-.197c-.5.434-.996.88-1.486 1.338.069.074.135.151.204.224a83.104 83.104 0 0 0 7.294 6.914.995.995 0 0 0 .642.234z"></path><path fill="#fa993e" d="M22.529 43.694a1 1 0 0 0 .644-1.765 81.677 81.677 0 0 1-3.805-3.403 75.07 75.07 0 0 1-3.768-3.845 72.754 72.754 0 0 0-1.149 1.708 82.418 82.418 0 0 0 7.436 7.072c.188.156.416.233.642.233z"></path><path fill="#6ac957" d="M54.207 8.155c-1.282.034-2.518.504-3.53 1.265a.175.175 0 0 1-.264-.222c.574-1.129.821-2.428.632-3.696a3.633 3.633 0 0 0-4.405-3.227c-1.275.268-2.268 1.279-2.686 2.512L42.56 8.894c2.61 2.834.981 7.1-.471 10.126a.24.24 0 0 0 .361.303c2.727-1.955 6.647-4.301 9.891-2.223l3.802-2.086c1.142-.627 1.966-1.78 2.008-3.082a3.634 3.634 0 0 0-3.944-3.777z"></path><path fill="#fa993e" d="M28.947 45.005c-7.79 7.227-11.156 7.321-13 7-3.398-.591-5.741-3.348-7.089-5.443a69.956 69.956 0 0 0-1.332 3.123s-3.487 8.823-.423 11.394c3.064 2.571 11.147-2.395 11.147-2.395 9.138-5.614 18.061-14.114 23.51-23.351 1.377-2.334 1.843-4.925 1.072-7.448-4.868 8.007-10.023 13.538-13.885 17.12z"></path><path fill="#f9993e" d="M22.043 51.213a80.99 80.99 0 0 1-4.012-3.156.998.998 0 0 0-1.408.123.998.998 0 0 0 .123 1.408 82.28 82.28 0 0 0 4.11 3.235c.96.708 1.95 1.394 2.948 2.065a79.92 79.92 0 0 0 1.666-1.29 81.01 81.01 0 0 1-3.427-2.385zM41.339 35.51a82.56 82.56 0 0 1-3.869-2.682 1 1 0 0 0-1.185 1.611 84.478 84.478 0 0 0 3.964 2.746c.085.055.172.107.257.162.366-.562.719-1.127 1.06-1.695-.076-.048-.153-.094-.227-.142zm-5.143 6.128a80.887 80.887 0 0 1-3.868-2.682 80.465 80.465 0 0 1-4.013-3.156 1 1 0 0 0-1.285 1.533 83.357 83.357 0 0 0 8.075 5.98c.208.136.42.264.629.398a69.08 69.08 0 0 0 1.284-1.554c-.274-.174-.549-.342-.822-.519z"></path><path fill="#f87e2c" d="M6.919 51.461c.262.256.52.518.784.77a82.8 82.8 0 0 0 3.9 3.486.998.998 0 1 0 1.285-1.532 81.436 81.436 0 0 1-3.806-3.402c-.482-.459-.957-.93-1.43-1.403-.041.102-.086.205-.126.307.001-.002-.278.711-.607 1.774z"></path><path fill="#f97e2d" d="M40.248 37.185c.085.055.172.107.257.162v-.001c.365-.561.718-1.125 1.058-1.692l.002-.003c-.075-.048-.151-.094-.226-.143a82.244 82.244 0 0 1-2.474-1.685 82.295 82.295 0 0 1-1.201 1.6 81.681 81.681 0 0 0 2.584 1.762z"></path><path fill="#fb7f2e" d="M35.106 43.313c.208.136.42.264.629.398.134-.157.261-.319.394-.477.299-.358.599-.715.89-1.077-.274-.174-.55-.342-.822-.519a79.17 79.17 0 0 1-2.361-1.604 77.765 77.765 0 0 1-1.367 1.481 80.232 80.232 0 0 0 2.637 1.798zM25.47 53.598a80.37 80.37 0 0 1-3.427-2.385c-.209-.154-.414-.317-.622-.474-.777.42-1.468.724-2.078.931.503.389 1.007.779 1.514 1.153.96.708 1.95 1.394 2.948 2.065l.001-.001c.558-.42 1.113-.85 1.664-1.289z"></path><path fill="#19161c" d="M57.618 8.33c-.95-.855-2.221-1.281-3.411-1.174a6.846 6.846 0 0 0-2.22.434c.125-.697.161-1.495.053-2.175a4.645 4.645 0 0 0-1.76-3.243 4.622 4.622 0 0 0-3.602-.921c-1.682.266-3.089 1.497-3.673 3.214l-.919 2.708c-.78-.531-1.665-.889-2.584-.989a5.684 5.684 0 0 0-5.075 2.11 5.675 5.675 0 0 0-.938 5.414c.036.112 1.834 4.077 1.877 4.183a1.45 1.45 0 0 1-.209 1.519l-.017.02c-3.226-.893-6.511-.141-9.351 2.287-7.837 6.703-15.012 17.021-19.194 27.601-.384.972-3.65 9.577-.135 12.526.827.694 1.896.964 3.061.964 3.786 0 8.572-2.854 9.253-3.272 9.694-5.956 18.609-14.814 23.848-23.695 1.898-3.217 2.069-6.583.629-9.605l.017-.02a1.446 1.446 0 0 1 1.459-.47l4.446 1.122a5.663 5.663 0 0 0 5.17-1.864 5.674 5.674 0 0 0 1.195-5.363c-.258-.888-.764-1.697-1.423-2.374l2.509-1.376c1.589-.873 2.558-2.473 2.527-4.175a4.611 4.611 0 0 0-1.533-3.386zM44.901 5.108c.338-.996 1.159-1.735 2.091-1.882a2.634 2.634 0 0 1 2.057.521c.607.463.965 1.208 1.028 2.052.156 1.411-.308 2.878-1.271 4.026l-4.131 4.922c.458-2.085.395-4.334-.989-6.062l1.215-3.577zm-7.84 15.046a3.465 3.465 0 0 0 .131-3.083l-1.824-4.054a3.682 3.682 0 0 1 .623-3.474 3.676 3.676 0 0 1 3.296-1.371c1.357.148 2.661 1.227 3.279 2.52.569 1.126.384 2.299.173 3.549-.412 2.161-1.41 4.495-2.617 5.932L39.1 21.392a14.66 14.66 0 0 0-2.039-1.238zM40.9 34.825c-.054.092-.115.183-.169.275a83.263 83.263 0 0 1-3.26-2.272 1 1 0 0 0-1.185 1.611 83.403 83.403 0 0 0 3.384 2.356 59.454 59.454 0 0 1-3.511 4.815 81.233 81.233 0 0 1-7.842-5.811 1 1 0 0 0-1.285 1.533 81.955 81.955 0 0 0 7.842 5.823 74.55 74.55 0 0 1-10.269 9.854 75.974 75.974 0 0 1-2.56-1.798 80.99 80.99 0 0 1-4.012-3.156.998.998 0 0 0-1.408.123.998.998 0 0 0 .123 1.408 82.28 82.28 0 0 0 4.11 3.235c.68.501 1.386.981 2.089 1.463a70.086 70.086 0 0 1-5.217 3.546c-2.89 1.773-8.155 4.012-9.981 2.481-1.453-1.219-.931-4.992-.031-8.072a83.889 83.889 0 0 0 3.888 3.476 1 1 0 1 0 1.285-1.532 81.436 81.436 0 0 1-3.806-3.402c-.222-.211-.439-.43-.658-.646a69.18 69.18 0 0 1 2.618-5.838c.596.608 1.191 1.219 1.803 1.803a1.001 1.001 0 0 0 1.38-1.449 78.138 78.138 0 0 1-2.215-2.208 75.534 75.534 0 0 1 3.154-5.306 83.888 83.888 0 0 0 2.824 2.835 82.418 82.418 0 0 0 3.899 3.487 1 1 0 1 0 1.285-1.531 81.677 81.677 0 0 1-3.805-3.403 81.087 81.087 0 0 1-3.064-3.087c2.749-3.985 5.829-7.618 9.06-10.645a82.696 82.696 0 0 0 2.909 2.924 83.63 83.63 0 0 0 3.9 3.486 1 1 0 1 0 1.285-1.532 82.365 82.365 0 0 1-3.807-3.402 82.708 82.708 0 0 1-2.803-2.816c3.51-3.384 8.39-2.898 11.752.09.969.822 1.829 1.765 2.473 2.857 1.543 2.615 1.518 5.555-.175 8.425zm11.942-11.142c-.843.957-2.102 1.41-3.267 1.229l-4.356-1.104a3.457 3.457 0 0 0-3.014.664 14.487 14.487 0 0 0-1.574-1.792l1.022-1.22.004-.004.002-.002c1.61-1.914 4.85-3.74 7.379-4.158.795-.123 1.639.06 2.349.432 1.043.524 1.928 1.429 2.232 2.472a3.686 3.686 0 0 1-.777 3.483zm2.82-9.545-3.313 1.817c-1.945-1.061-4.167-.736-6.143.08l4.131-4.923c.964-1.148 2.329-1.859 3.742-1.951.789-.087 1.605.105 2.201.656.549.493.857 1.18.871 1.935.017.943-.568 1.88-1.489 2.386z"></path></svg>