<svg xmlns="http://www.w3.org/2000/svg" enable-background="new 0 0 1000 1000" viewBox="0 0 1000 1000" id="christmas-gift"><g opacity=".39"><path fill="none" stroke="#9284ce" stroke-linecap="round" stroke-linejoin="round" stroke-miterlimit="10" stroke-width="6" d="M798.176 558.826h11.991M804.172 552.83v11.991"></path></g><g opacity=".4"><path fill="none" stroke="#9284ce" stroke-linecap="round" stroke-linejoin="round" stroke-miterlimit="10" stroke-width="6" d="M469.141 262.461h11.991M475.137 256.466v11.991"></path></g><circle cx="660.147" cy="340.615" r="8.676" fill="none" stroke="#ff6f6c" stroke-linecap="round" stroke-linejoin="round" stroke-miterlimit="10" stroke-width="3.638"></circle><circle cx="114.496" cy="452.478" r="3.842" fill="none" stroke="#ff6f6c" stroke-linecap="round" stroke-linejoin="round" stroke-miterlimit="10" stroke-width="3.638"></circle><circle cx="769.237" cy="334.711" r="7.254" fill="none" stroke="#ffa65c" stroke-linecap="round" stroke-linejoin="round" stroke-miterlimit="10" stroke-width="6"></circle><circle cx="167.509" cy="650.206" r="7.254" fill="none" stroke="#ffa65c" stroke-linecap="round" stroke-linejoin="round" stroke-miterlimit="10" stroke-width="4" opacity=".45"></circle><path fill="none" stroke="#ff6f6c" stroke-linecap="round" stroke-linejoin="round" stroke-miterlimit="10" stroke-width="3.638" d="M396.229 225.124h9.172M400.815 220.537v9.173"></path><g opacity=".24"><path fill="none" stroke="#34323a" stroke-linecap="round" stroke-linejoin="round" stroke-miterlimit="10" stroke-width="9.326" d="M269.482 524.972h22.158M280.561 513.893v22.158"></path></g><path fill="none" stroke="#ffa64d" stroke-linecap="round" stroke-linejoin="round" stroke-miterlimit="10" stroke-width="3" d="M769.237 475.221v3.493M769.237 488.749v3.493M777.748 483.731h-3.493M764.22 483.731h-3.493M775.255 477.714l-2.47 2.469M765.689 487.279l-2.469 2.47M775.255 489.749l-2.47-2.47M765.689 480.183l-2.469-2.469"></path><g opacity=".57"><path fill="none" stroke="#e24d59" stroke-linecap="square" stroke-miterlimit="10" stroke-width="4" d="M611.918 225.124v8.538M611.918 258.192v8.538M632.721 245.927h-8.538M599.652 245.927h-8.538M626.628 231.217l-6.037 6.037M603.245 254.6l-6.037 6.037M626.628 260.637l-6.037-6.037M603.245 237.254l-6.037-6.037"></path></g><path fill="none" stroke="#ff6f6c" stroke-linecap="round" stroke-linejoin="round" stroke-miterlimit="10" stroke-width="3.638" d="M189.421 448.331v6.149M189.421 472.146v6.149M204.403 463.313h-6.149M180.587 463.313h-6.149M200.015 452.719l-4.348 4.348M183.174 469.559l-4.347 4.348M200.015 473.907l-4.348-4.348M183.174 457.067l-4.347-4.348"></path><path fill="none" stroke="#ae8dce" stroke-linecap="round" stroke-linejoin="round" stroke-miterlimit="10" stroke-width="3.105" d="M305.168 279.143v5.248M305.168 299.47v5.249M317.957 291.931h-5.249M297.629 291.931h-5.249M314.211 282.888l-3.711 3.711M299.837 297.262l-3.711 3.711M314.211 300.973l-3.711-3.711M299.837 286.599l-3.711-3.711"></path><path fill="none" stroke="#34323a" stroke-linecap="round" stroke-linejoin="round" stroke-miterlimit="10" stroke-width="12" d="M155.509 745.409h682.466"></path><path fill="#dba44a" d="M225.146 626.951c-14.655 8.951-21.176 25.056 0 31.004 44.837-.933 66.491-.989 66.491-.989v-18.089c0-.001-51.836-20.877-66.491-11.926z"></path><path fill="none" stroke="#34323a" stroke-linecap="round" stroke-linejoin="round" stroke-miterlimit="10" stroke-width="8" d="M225.146 626.951c-14.655 8.951-21.176 25.056 0 31.004 44.837-.933 66.491-.989 66.491-.989v-18.089c0-.001-51.836-20.877-66.491-11.926z"></path><path fill="#dba44a" d="M225.146 626.951c-14.655 8.951-21.176 25.056 0 31.004 44.837-.933 66.491-.989 66.491-.989v-18.089c0-.001-51.836-20.877-66.491-11.926z"></path><path fill="#fecb5b" d="M226.678 634.088c13.16-8.038 56.295 7.974 64.959 11.325v-6.537S239.801 618 225.146 626.95c-10.41 6.358-16.703 16.324-11.892 23.697.847-5.868 6.125-12.101 13.424-16.559z"></path><path fill="none" stroke="#34323a" stroke-linecap="round" stroke-linejoin="round" stroke-miterlimit="10" stroke-width="8" d="M225.146 626.951c-14.655 8.951-21.176 25.056 0 31.004 44.837-.933 66.491-.989 66.491-.989v-18.089c0-.001-51.836-20.877-66.491-11.926z"></path><path fill="#dba44a" d="M397.332 626.951c14.655 8.951 21.176 25.056 0 31.004-44.837-.933-66.491-.989-66.491-.989v-18.089c0-.001 51.836-20.877 66.491-11.926z"></path><path fill="#fecb5b" d="M397.332 633.142c6.652 4.063 11.615 9.599 13.086 14.991 2.184-7.004-3.82-15.523-13.086-21.183-14.655-8.951-66.491 11.926-66.491 11.926v6.192s51.836-20.876 66.491-11.926z"></path><path fill="none" stroke="#34323a" stroke-linecap="round" stroke-linejoin="round" stroke-miterlimit="10" stroke-width="8" d="M397.332 626.951c14.655 8.951 21.176 25.056 0 31.004-44.837-.933-66.491-.989-66.491-.989v-18.089c0-.001 51.836-20.877 66.491-11.926z"></path><path fill="#dba44a" d="M325.96 663.469a70.675 70.675 0 0 1-30.125 0c-6.756-1.871-11.982-9.743-11.979-15.94-.003-6.197 5.223-14.068 11.979-15.94a70.675 70.675 0 0 1 30.125 0c6.756 1.872 11.982 9.743 11.979 15.94.003 6.197-5.223 14.068-11.979 15.94z"></path><path fill="#fecb5b" d="M295.835 639.441a70.675 70.675 0 0 1 30.125 0c5.382 1.491 9.782 6.788 11.353 12.014.401-1.335.627-2.665.626-3.926.003-6.197-5.223-14.068-11.979-15.94a70.675 70.675 0 0 0-30.125 0c-6.756 1.872-11.982 9.743-11.979 15.94 0 1.261.225 2.591.627 3.926 1.57-5.226 5.971-10.523 11.352-12.014z"></path><path fill="none" stroke="#34323a" stroke-linecap="round" stroke-linejoin="round" stroke-miterlimit="10" stroke-width="8" d="M325.96 663.469a70.675 70.675 0 0 1-30.125 0c-6.756-1.871-11.982-9.743-11.979-15.94h0c-.003-6.197 5.223-14.068 11.979-15.94a70.675 70.675 0 0 1 30.125 0c6.756 1.872 11.982 9.743 11.979 15.94h0c.003 6.197-5.223 14.068-11.979 15.94z"></path><path fill="#fecb5b" d="M204.042 659.713h178.253v85.226H204.042z"></path><path fill="#ef4c4e" d="m382.295 678.791-66.149 66.149h23.416l42.733-42.733zM377.048 659.713h-21.675l-85.227 85.227h23.416l84.357-84.357zM309.373 659.713l-85.227 85.227h23.416l85.227-85.227zM286.789 659.713h-23.416l-59.331 59.331v17.887l2.765 2.765zM217.373 659.713l-13.331 13.331v23.416l36.747-36.747z"></path><path fill="#f4e598" d="M204.042 659.713h178.253v12.331H204.042z" opacity=".46"></path><path fill="#4c1c1f" d="M204.042 659.713h15.505v85.226h-15.505zM349.22 659.713h15.505v85.226H349.22z" opacity=".2"></path><path fill="none" stroke="#34323a" stroke-linecap="round" stroke-linejoin="round" stroke-miterlimit="10" stroke-width="12" d="M204.042 659.713h178.253v85.226H204.042z"></path><path fill="#fff" d="M599.549 413.658s2.588 10.053-11.947 19.033c31.503 6.521 51.11 21.685 54.297 25.349h6.248s-8.4-40.329-48.598-44.382z"></path><path fill="none" stroke="#34323a" stroke-linecap="round" stroke-linejoin="round" stroke-miterlimit="10" stroke-width="6" d="M599.549 413.658s2.588 10.053-11.947 19.033c31.503 6.521 51.11 21.685 54.297 25.349h6.248s-8.4-40.329-48.598-44.382z"></path><path fill="#fff" d="M709.371 420.108s-3.987 9.585 9.128 20.534c-32.109 1.99-53.667 14.222-57.341 17.397l-6.184-.885s14.03-38.731 54.397-37.046z"></path><path fill="none" stroke="#34323a" stroke-linecap="round" stroke-linejoin="round" stroke-miterlimit="10" stroke-width="6" d="M709.371 420.108s-3.987 9.585 9.128 20.534c-32.109 1.99-53.667 14.222-57.341 17.397l-6.184-.885s14.03-38.731 54.397-37.046z"></path><path fill="#eef2fa" d="M654.96 452.609s9.185-20.499 29.185-20.499c19.098.75 32.25 31.36 16.75 33.906-15.5 2.546-41.855 3.298-41.855 3.298s3.827-8.798-4.08-16.705z"></path><path fill="none" stroke="#34323a" stroke-linecap="round" stroke-linejoin="round" stroke-miterlimit="10" stroke-width="6" d="M654.96 452.609s9.185-20.499 29.185-20.499c19.098.75 32.25 31.36 16.75 33.906-15.5 2.546-41.855 3.298-41.855 3.298s3.827-8.798-4.08-16.705z"></path><path fill="#eef2fa" d="M644.535 452.609s-9.185-20.499-29.185-20.499c-19.098.75-32.25 31.36-16.75 33.906 15.5 2.546 41.855 3.298 41.855 3.298s-3.827-8.798 4.08-16.705z"></path><path fill="none" stroke="#34323a" stroke-linecap="round" stroke-linejoin="round" stroke-miterlimit="10" stroke-width="6" d="M644.535 452.609s-9.185-20.499-29.185-20.499c-19.098.75-32.25 31.36-16.75 33.906 15.5 2.546 41.855 3.298 41.855 3.298s-3.827-8.798 4.08-16.705z"></path><path fill="none" stroke="#34323a" stroke-linecap="round" stroke-linejoin="round" stroke-miterlimit="10" stroke-width="2" d="M638.535 456.531s.002-4.922-10.29-6.819M639.535 461.392s-11.146-8.478-28.785-7.965"></path><path fill="#6fbb57" d="M533.213 744.94H369.546a6 6 0 0 1-6-6V384.711h175.667V738.94a6 6 0 0 1-6 6z"></path><path fill="#579b3e" d="M363.546 384.711h175.667v16.729H363.546zM363.546 552.097h175.667v16.729H363.546z"></path><path fill="#579b3e" d="M451.058 384.711h24.156V744.94h-24.156zM517.919 744.94h-24.156V621.96c0-7.066 5.728-12.794 12.794-12.794h11.362V744.94zM364.094 384.711h12.078V744.94h-12.078z"></path><path fill="none" stroke="#34323a" stroke-linecap="round" stroke-linejoin="round" stroke-miterlimit="10" stroke-width="12" d="M533.213 744.94H369.546a6 6 0 0 1-6-6V384.711h175.667V738.94a6 6 0 0 1-6 6z"></path><path fill="#6fbb57" d="M545.379 340.711h-188a6 6 0 0 0-6 6v32a6 6 0 0 0 6 6h188a6 6 0 0 0 6-6v-32a6 6 0 0 0-6-6z"></path><path fill="#6fbb57" d="M456.612 332.162s16.719-31.453 46.993-34.177c22.254-2.003 27.346 52.227 21.295 58.278-9.643 9.643-26.646 4.186-58.521-2.552l-9.767-21.549zM441.517 332.162s-16.719-31.453-46.993-34.177c-22.255-2.003-27.346 52.227-21.295 58.278 9.643 9.643 26.646 4.186 58.521-2.552l9.767-21.549z"></path><path fill="#6fbb57" d="M436.718 340.711h45.322v44h-45.322z"></path><path fill="#579b3e" d="M545.379 372.711h-188a6 6 0 1 0 0 12h188a6 6 0 0 0 0-12z"></path><path fill="#579b3e" d="M353.511 340.711h10.034v44h-10.034z"></path><path fill="#fff" d="M545.379 340.711h-188a6 6 0 1 0 0 12h188a6 6 0 0 0 0-12z" opacity=".42"></path><path fill="#fecb5b" d="M436.379 384.711h30V744.94h-30z"></path><path fill="none" stroke="#34323a" stroke-linecap="round" stroke-linejoin="round" stroke-miterlimit="10" stroke-width="8" d="M436.379 384.711h30V744.94h-30z"></path><path fill="none" stroke="#34323a" stroke-linecap="round" stroke-linejoin="round" stroke-miterlimit="10" stroke-width="12" d="M545.379 340.711h-188a6 6 0 0 0-6 6v32a6 6 0 0 0 6 6h188a6 6 0 0 0 6-6v-32a6 6 0 0 0-6-6z"></path><path fill="#fecb5b" d="M428.718 340.711h45.322v44h-45.322z"></path><path fill="#ea952f" d="M451.379 369.926c-12.515 0-22.661-10.146-22.661-22.661V339c0-12.515 10.146-22.661 22.661-22.661S474.04 326.485 474.04 339v8.265c.001 12.515-10.145 22.661-22.661 22.661z" opacity=".63"></path><path fill="none" stroke="#34323a" stroke-linecap="round" stroke-linejoin="round" stroke-miterlimit="10" stroke-width="8" d="M428.718 340.711h45.322v44h-45.322z"></path><path fill="#f7b45c" d="M456.612 323.162s16.719-31.453 46.993-34.177c22.254-2.003 27.346 52.227 21.295 58.278-9.643 9.643-26.646 4.186-58.521-2.552l-9.767-21.549z"></path><path fill="#ea952f" d="M481.041 338.265V330c0-9.584-4.574-18.117-11.648-23.543-8.371 8.429-12.78 16.704-12.78 16.704l9.767 21.549c4.705.995 9.078 1.959 13.159 2.854a29.527 29.527 0 0 0 1.502-9.299z" opacity=".63"></path><path fill="#fecb5b" d="M505.446 295.753c9.494-.854 15.862 8.527 19.576 20.034-3.235-14.32-10.109-27.82-21.417-26.802-30.274 2.724-46.993 34.177-46.993 34.177l2.525 5.57c3.401-5.75 19.559-30.572 46.309-32.979z"></path><path fill="none" stroke="#34323a" stroke-linecap="round" stroke-linejoin="round" stroke-miterlimit="10" stroke-width="8" d="M456.612 323.162s16.719-31.453 46.993-34.177c22.254-2.003 27.346 52.227 21.295 58.278-9.643 9.643-26.646 4.186-58.521-2.552l-9.767-21.549z"></path><path fill="none" stroke="#34323a" stroke-linecap="round" stroke-linejoin="round" stroke-miterlimit="10" stroke-width="2" d="M469.485 326.903s11.749-10.353 25.112-12.4M471.079 326.384s14.758-5.237 27.923-2.164"></path><path fill="#f7b45c" d="M441.517 323.162s-16.719-31.453-46.993-34.177c-22.255-2.003-27.346 52.227-21.295 58.278 9.643 9.643 26.646 4.186 58.521-2.552l9.767-21.549z"></path><path fill="#ea952f" d="M421.718 330v8.265c0 2.899.426 5.7 1.205 8.35a1237.01 1237.01 0 0 1 8.826-1.904l9.767-21.549s-3.67-6.904-10.684-14.523c-5.611 5.4-9.114 12.977-9.114 21.361z" opacity=".63"></path><path fill="#fecb5b" d="M393.275 296.753c25.42 2.287 41.278 24.821 45.711 31.992l2.53-5.583s-16.719-31.453-46.993-34.177c-13.823-1.244-21.022 19.205-23.045 36.33 3.059-14.952 10.027-29.621 21.797-28.562z"></path><path fill="none" stroke="#34323a" stroke-linecap="round" stroke-linejoin="round" stroke-miterlimit="10" stroke-width="8" d="M441.517 323.162s-16.719-31.453-46.993-34.177c-22.255-2.003-27.346 52.227-21.295 58.278 9.643 9.643 26.646 4.186 58.521-2.552l9.767-21.549z"></path><path fill="none" stroke="#34323a" stroke-linecap="round" stroke-linejoin="round" stroke-miterlimit="10" stroke-width="2" d="M404.946 326.178s15.557-1.789 27.696 4.162M408.204 315.187s15.245 3.578 24.656 13.284"></path><path fill="#fc6" d="M363.546 530.526h175.667v30H363.546z"></path><path fill="#f7b45c" d="M363.546 530.526h12.627v30h-12.627z" opacity=".6"></path><path fill="none" stroke="#34323a" stroke-linecap="round" stroke-linejoin="round" stroke-miterlimit="10" stroke-width="8" d="M363.546 530.526h175.667v30H363.546z"></path><path fill="#f7b45c" d="M451.379 360.926c-12.515 0-22.661-10.146-22.661-22.661V330c0-12.515 10.146-22.661 22.661-22.661S474.04 317.485 474.04 330v8.265c.001 12.515-10.145 22.661-22.661 22.661z"></path><path fill="#fecb5b" d="M451.379 307.339c-12.515 0-22.661 10.146-22.661 22.661v6.578c0-12.515 10.146-22.661 22.661-22.661s22.661 10.146 22.661 22.661V330c.001-12.515-10.145-22.661-22.661-22.661z"></path><path fill="none" stroke="#34323a" stroke-linecap="round" stroke-linejoin="round" stroke-miterlimit="10" stroke-width="8" d="M451.379 360.926h0c-12.515 0-22.661-10.146-22.661-22.661V330c0-12.515 10.146-22.661 22.661-22.661h0c12.515 0 22.661 10.146 22.661 22.661v8.265c.001 12.515-10.145 22.661-22.661 22.661z"></path><path fill="none" stroke="#34323a" stroke-linecap="round" stroke-linejoin="round" stroke-miterlimit="10" stroke-width="2" d="M445.537 693.867v51.073M455.819 387.877v18.465M451.379 387.877v9.233M457.214 720.231v24.709M363.546 540.906h12.627M520.248 549.822h22.223M505.841 541.906h32.526"></path><path fill="#6b9ec0" d="M736.712 744.94H511.841a6 6 0 0 1-6-6V620.284a6 6 0 0 1 6-6h224.872a6 6 0 0 1 6 6V738.94a6.001 6.001 0 0 1-6.001 6z"></path><path fill="#5187a5" d="M736.712 613.284H505.84V743.94h16.622V635.929a8.21 8.21 0 0 1 8.21-8.21h206.04a6 6 0 0 0 6-6v-2.436a6 6 0 0 0-6-5.999z"></path><g opacity=".62"><circle cx="522.463" cy="620.112" r="8.607" fill="#fff"></circle><circle cx="556.401" cy="620.112" r="8.607" fill="#fff"></circle><circle cx="590.339" cy="620.112" r="8.607" fill="#fff"></circle><circle cx="624.277" cy="620.112" r="8.607" fill="#fff"></circle><circle cx="658.215" cy="620.112" r="8.607" fill="#fff"></circle><circle cx="692.153" cy="620.112" r="8.607" fill="#fff"></circle><circle cx="726.091" cy="620.112" r="8.607" fill="#fff"></circle><circle cx="539.432" cy="643.952" r="8.607" fill="#fff"></circle><circle cx="573.37" cy="643.952" r="8.607" fill="#fff"></circle><circle cx="607.308" cy="643.952" r="8.607" fill="#fff"></circle><circle cx="641.246" cy="643.952" r="8.607" fill="#fff"></circle><circle cx="675.184" cy="643.952" r="8.607" fill="#fff"></circle><circle cx="709.122" cy="643.952" r="8.607" fill="#fff"></circle><circle cx="522.463" cy="668.321" r="8.607" fill="#fff"></circle><circle cx="556.401" cy="668.321" r="8.607" fill="#fff"></circle><circle cx="590.339" cy="668.321" r="8.607" fill="#fff"></circle><circle cx="624.277" cy="668.321" r="8.607" fill="#fff"></circle><circle cx="658.215" cy="668.321" r="8.607" fill="#fff"></circle><circle cx="692.153" cy="668.321" r="8.607" fill="#fff"></circle><circle cx="726.091" cy="668.321" r="8.607" fill="#fff"></circle><circle cx="539.432" cy="692.16" r="8.607" fill="#fff"></circle><circle cx="573.37" cy="692.16" r="8.607" fill="#fff"></circle><circle cx="607.308" cy="692.16" r="8.607" fill="#fff"></circle><circle cx="641.246" cy="692.16" r="8.607" fill="#fff"></circle><circle cx="675.184" cy="692.16" r="8.607" fill="#fff"></circle><circle cx="709.122" cy="692.16" r="8.607" fill="#fff"></circle><circle cx="522.463" cy="715.272" r="8.607" fill="#fff"></circle><circle cx="556.401" cy="715.272" r="8.607" fill="#fff"></circle><circle cx="590.339" cy="715.272" r="8.607" fill="#fff"></circle><circle cx="624.277" cy="715.272" r="8.607" fill="#fff"></circle><circle cx="658.215" cy="715.272" r="8.607" fill="#fff"></circle><circle cx="692.153" cy="715.272" r="8.607" fill="#fff"></circle><circle cx="726.091" cy="715.272" r="8.607" fill="#fff"></circle><circle cx="539.432" cy="739.111" r="8.607" fill="#fff"></circle><circle cx="573.37" cy="739.111" r="8.607" fill="#fff"></circle><circle cx="607.308" cy="739.111" r="8.607" fill="#fff"></circle><circle cx="641.246" cy="739.111" r="8.607" fill="#fff"></circle><circle cx="675.184" cy="739.111" r="8.607" fill="#fff"></circle><circle cx="709.122" cy="739.111" r="8.607" fill="#fff"></circle></g><path fill="none" stroke="#34323a" stroke-linecap="round" stroke-linejoin="round" stroke-miterlimit="10" stroke-width="12" d="M736.712 744.94H511.841a6 6 0 0 1-6-6V620.284a6 6 0 0 1 6-6h224.872a6 6 0 0 1 6 6V738.94a6.001 6.001 0 0 1-6.001 6z"></path><path fill="#ef4c4e" d="M577.864 467.801h146.374v146.483H577.864z"></path><path fill="#dd3a43" d="M654.973 469.313h12.151v142.192h-12.151z"></path><path fill="#dd3a43" d="M579.528 469.313h144.185v7.974H579.528zM579.528 551.097h144.185v7.974H579.528z"></path><path fill="#dd3a43" d="M579.528 473.3h8.075v138.205h-8.075z"></path><path fill="#eef2fa" d="M641.051 467.665h20v146.483h-20z"></path><path fill="none" stroke="#34323a" stroke-linecap="round" stroke-linejoin="round" stroke-miterlimit="10" stroke-width="6" d="M641.051 467.665h20v146.483h-20z"></path><path fill="#eef2fa" d="M640.525 469.371h20v146.374h-20z" transform="rotate(90 650.525 542.558)"></path><path fill="none" stroke="#34323a" stroke-linecap="round" stroke-linejoin="round" stroke-miterlimit="10" stroke-width="6" d="M640.525 469.371h20v146.374h-20z" transform="rotate(90 650.525 542.558)"></path><path fill="none" stroke="#34323a" stroke-linecap="round" stroke-linejoin="round" stroke-miterlimit="10" stroke-width="12" d="M577.864 467.801h146.374v146.483H577.864z"></path><path fill="#fff" d="M635.091 465.367c0-8.094 6.562-14.656 14.656-14.656s14.656 6.562 14.656 14.656h-29.312z"></path><path fill="none" stroke="#34323a" stroke-linecap="round" stroke-linejoin="round" stroke-miterlimit="10" stroke-width="6" d="M635.091 465.367c0-8.094 6.562-14.656 14.656-14.656s14.656 6.562 14.656 14.656h-29.312z"></path><path fill="none" stroke="#34323a" stroke-linecap="round" stroke-linejoin="round" stroke-miterlimit="10" stroke-width="2" d="M661.147 582.141v32.143M666.822 598.212v16.072M699.755 542.558h24.483M592.528 540.906h14.78M662.051 456.531s2.236-4.214 10.146-8.428M661.051 461.392s12.843-8.913 25.685-9.075"></path><path fill="none" stroke="#34323a" stroke-linecap="round" stroke-linejoin="round" stroke-miterlimit="10" stroke-width="12" d="M811.902 655.107h12.817v20.61h-12.817z" transform="rotate(29.611 818.357 665.462)"></path><circle cx="795.077" cy="706.289" r="37.837" fill="#ef4c4e"></circle><path fill="#ff8d93" d="M767.255 697.419c10.326-18.167 33.424-24.524 51.591-14.199a37.68 37.68 0 0 1 12.011 10.791c-2.887-8.424-8.734-15.872-17.084-20.618-18.167-10.326-41.266-3.969-51.591 14.199-7.543 13.271-6.175 29.168 2.187 40.8-3.393-9.902-2.693-21.156 2.886-30.973z"></path><circle cx="795.077" cy="706.289" r="37.837" fill="none" stroke="#34323a" stroke-linecap="round" stroke-linejoin="round" stroke-miterlimit="10" stroke-width="12"></circle><path fill="none" stroke="#34323a" stroke-linecap="round" stroke-linejoin="round" stroke-miterlimit="10" stroke-width="12" d="m809.915 648.788 26.105 14.837"></path><ellipse cx="796.483" cy="688.45" fill="#fff" rx="7.323" ry="4.636" transform="rotate(-29.073 796.538 688.507)"></ellipse><ellipse cx="783.569" cy="695.073" fill="#fff" rx="2.802" ry="2.461" transform="rotate(-60.39 783.535 695.071)"></ellipse><circle cx="777.207" cy="694.68" r="7.298" fill="#fecb5b"></circle><circle cx="777.207" cy="694.68" r="7.298" fill="none" stroke="#34323a" stroke-linecap="round" stroke-linejoin="round" stroke-miterlimit="10" stroke-width="6"></circle><circle cx="792.172" cy="711.581" r="7.298" fill="#fecb5b"></circle><circle cx="792.172" cy="711.581" r="7.298" fill="none" stroke="#34323a" stroke-linecap="round" stroke-linejoin="round" stroke-miterlimit="10" stroke-width="6"></circle><circle cx="813.358" cy="717.176" r="7.298" fill="#fecb5b"></circle><circle cx="813.358" cy="717.176" r="7.298" fill="none" stroke="#34323a" stroke-linecap="round" stroke-linejoin="round" stroke-miterlimit="10" stroke-width="6"></circle><ellipse cx="823.195" cy="656.287" fill="none" stroke="#34323a" stroke-linecap="round" stroke-linejoin="round" stroke-miterlimit="10" stroke-width="12" rx="5.537" ry="4.494"></ellipse></svg>