<svg xmlns="http://www.w3.org/2000/svg" viewBox="0 0 512 512" id="orange"><circle cx="256" cy="337.67" r="146.77" fill="#f47a16"></circle><path fill="#46c43d" d="M183.95,27.68l37.73,1.5c33.21,1.51,58.87,29.44,58.11,62.65l-1.5,37.73a7.161,7.161,0,0,1-6.8,6.04l-37.73-1.51c-33.21-1.51-58.87-29.43-58.12-62.64l1.51-37.74C177.15,29.94,180.17,26.92,183.95,27.68Z"></path><path fill="#083863" d="M260.826,182.982A73.682,73.682,0,0,1,288.5,134.868,71.358,71.358,0,0,1,342.125,120a8,8,0,1,0,2.07-15.865,86.932,86.932,0,0,0-57.382,12.435l.971-24.424c0-.045,0-.09,0-.135a69.2,69.2,0,0,0-18.441-48.827,68.29,68.29,0,0,0-47.3-22H222l-37.228-1.48a13.406,13.406,0,0,0-10.458,2.884,14.259,14.259,0,0,0-5.161,10.929l-1.505,37.61c0,.047,0,.093,0,.14a69.213,69.213,0,0,0,18.451,48.82,68.318,68.318,0,0,0,47.347,21.993l25.849,1.035a89.7,89.7,0,0,0-14.422,38.419c-.015.116-.028.233-.038.35l-.122,1.427c-80.088,5.8-143.477,72.814-143.477,154.356,0,85.34,69.43,154.77,154.77,154.77s154.77-69.43,154.77-154.77C410.77,253.945,343.942,185.542,260.826,182.982Zm-62.989-73.757a53.3,53.3,0,0,1-14.2-37.528l1.44-35.966,36.261,1.442A52.381,52.381,0,0,1,257.6,54.049a53.288,53.288,0,0,1,14.194,37.532l-1.43,35.968L234.123,126.1A52.394,52.394,0,0,1,197.837,109.225ZM256,476.44c-76.518,0-138.77-62.252-138.77-138.77S179.482,198.9,256,198.9s138.77,62.252,138.77,138.77S332.518,476.44,256,476.44Z"></path><path fill="#083863" d="M260.71,244.84a8,8,0,0,0,0,16,72.2,72.2,0,0,1,72.12,72.12,8,8,0,0,0,16,0A88.22,88.22,0,0,0,260.71,244.84Z"></path></svg>