<svg xmlns="http://www.w3.org/2000/svg" enable-background="new 0 0 48 48" viewBox="0 0 48 48" id="meats"><path d="M32,7H15c-3.309,0-6,2.691-6,6s2.691,6,6,6c4.908,0,7.7,1.861,10.164,3.504C27.256,23.898,28.908,25,32,25
	c4.962,0,9-4.038,9-9S36.963,7,32,7z M11,13c0-2.206,1.794-4,4-4c3.882,0,5.69,3.617,7.605,7.447
	c0.513,1.026,1.047,2.084,1.638,3.095C21.998,18.212,19.16,17,15,17C12.795,17,11,15.206,11,13z M32,23
	c-3.882,0-5.69-3.617-7.605-7.447C23.224,13.211,21.957,10.695,20.09,9H32c3.86,0,7,3.14,7,7S35.86,23,32,23z M39,31
	c-2.206,0-4,1.794-4,4h-4.65C27.69,28.885,17.494,25,13,25C7.486,25,3,29.486,3,35s4.486,10,10,10h11c2.785,0,5.189-1.639,6.315-4
	H35c0,2.206,1.794,4,4,4s4-1.794,4-4c0-1.193-0.525-2.267-1.357-3C42.475,37.267,43,36.193,43,35C43,32.794,41.206,31,39,31z M24,43
	H13c-4.411,0-8-3.589-8-8s3.589-8,8-8c4.64,0,16,4.761,16,11C29,40.757,26.757,43,24,43z M39,39c1.103,0,2,0.897,2,2s-0.897,2-2,2
	s-2-0.897-2-2c0-0.208,0.042-0.426,0.126-0.667c0.108-0.306,0.061-0.646-0.126-0.911C36.813,39.158,36.508,39,36.184,39H30.92
	c0.047-0.328,0.08-0.66,0.08-1c0-0.339-0.032-0.671-0.079-1h5.262c0.325,0,0.629-0.158,0.817-0.423
	c0.188-0.266,0.234-0.605,0.125-0.911C37.041,35.426,37,35.208,37,35c0-1.103,0.897-2,2-2s2,0.897,2,2s-0.897,2-2,2
	c-0.552,0-1,0.448-1,1S38.448,39,39,39z M15,23c3.697,0,5.761,1.375,7.945,2.832C25.281,27.39,27.697,29,32,29
	c7.168,0,13-5.832,13-13S39.169,3,32,3H15C9.486,3,5,7.486,5,13S9.486,23,15,23z M15,5h17c6.065,0,11,4.935,11,11s-4.935,11-11,11
	c-3.697,0-5.761-1.375-7.945-2.832C21.719,22.61,19.303,21,15,21c-4.411,0-8-3.589-8-8S10.589,5,15,5z"></path></svg>