<svg xmlns="http://www.w3.org/2000/svg" width="32" height="25" viewBox="0 0 32 25" id="soup"><g fill="none" fill-rule="evenodd"><g fill="#000" transform="translate(-316 -579)"><path d="M346.804 587.115h-2.359l1.312-.205a1.688 1.688 0 0 0 1.367-1.96 1.68 1.68 0 0 0-1.967-1.365l-4.854.955 4.342-2.395c.393-.225.67-.59.787-1.027a1.673 1.673 0 0 0-.17-1.283c-.445-.773-1.5-1.082-2.316-.613l-11.779 7.113-3.965.779-10.641.002a.562.562 0 0 0-.561.562c0 .838.078 1.705.232 2.56a.6.6 0 0 0 .039.27c.316 1.743.924 3.4 1.785 4.91l.025.067a.888.888 0 0 0 .084.123c2.816 4.783 7.988 7.752 13.518 7.752 8.646 0 15.682-7.035 15.682-15.684a.56.56 0 0 0-.561-.561zm-3.285-6.922a.57.57 0 0 1 .771.203.587.587 0 0 1 .057.432.579.579 0 0 1-.254.34l-7.412 4.084-2.283.449 9.121-5.508zm1.943 4.489a.56.56 0 0 1 .555.465.56.56 0 0 1-.445.654l-8.42 1.314h-4.111l12.421-2.433zm-13.777 17.554c-5.143 0-9.953-2.768-12.6-7.281l-.012-.027a14.492 14.492 0 0 1-1.709-4.691c-.002-.008-.002-.012-.002-.018a1.665 1.665 0 0 0-.006-.05 15.658 15.658 0 0 1-.219-1.93l29.09.003c-.294 7.766-6.706 13.994-14.542 13.994z"></path></g></g></svg>